<?xml version="1.0" encoding="utf-8"?>
<!-- Generated by Mocodo 4.1.2 -->
<svg width="573" height="289" viewBox="0 0 573 289" xmlns="http://www.w3.org/2000/svg">
<rect x="0" y="0" width="573" height="289" fill="#f7f7f7" stroke="none" stroke-width="0"/>

<!-- Association PASSE -->
<g>
	<line x1="49" y1="221" x2="49" y2="77" stroke="#8073ac" stroke-width="2"/>
	<line x1="150" y1="77" x2="49" y2="77" stroke="#8073ac" stroke-width="2"/>
	<polygon points="106 77 94 83 98 77 94 71" fill="#8073ac" stroke-width="0"/>
	<g>
		<path d="M60 52 a14 14 90 0 1 14 14 V77 h-50 V66 a14 14 90 0 1 14 -14" fill="#b2abd2" stroke="#b2abd2" stroke-width="0"/>
		<path d="M74 77 v11 a14 14 90 0 1 -14 14 H38 a14 14 90 0 1 -14 -14 V77 H50" fill="#d8daeb" stroke="#d8daeb" stroke-width="0"/>
		<rect x="24" y="52" width="50" height="50" fill="none" rx="14" stroke="#8073ac" stroke-width="2"/>
		<line x1="24" y1="77" x2="74" y2="77" stroke="#8073ac" stroke-width="1"/>
		<text x="32" y="69.75" fill="#000000" font-family="Verdana" font-size="12">passe</text>
	</g>
	<text x="54" y="154" fill="#b35806" font-family="Verdana" font-size="12">0,N</text>
	<text x="80" y="94" fill="#b35806" font-family="Verdana" font-size="12">1,1</text>
</g>

<!-- Association CONTIENT -->
<g>
	<line x1="150" y1="77" x2="274" y2="77" stroke="#8073ac" stroke-width="2"/>
	<line x1="400" y1="77" x2="274" y2="77" stroke="#8073ac" stroke-width="2"/>
	<polygon points="354 77 342 83 346 77 342 71" fill="#8073ac" stroke-width="0"/>
	<g>
		<path d="M308 43 a14 14 90 0 1 14 14 V68 h-96 V57 a14 14 90 0 1 14 -14" fill="#b2abd2" stroke="#b2abd2" stroke-width="0"/>
		<path d="M322 68 v29 a14 14 90 0 1 -14 14 H240 a14 14 90 0 1 -14 -14 V68 H96" fill="#d8daeb" stroke="#d8daeb" stroke-width="0"/>
		<rect x="226" y="43" width="96" height="68" fill="none" rx="14" stroke="#8073ac" stroke-width="2"/>
		<line x1="226" y1="68" x2="322" y2="68" stroke="#8073ac" stroke-width="1"/>
		<text x="249" y="60.75" fill="#000000" font-family="Verdana" font-size="12">contient</text>
		<text x="233" y="85.8" fill="#000000" font-family="Verdana" font-size="12">num_order</text>
		<text x="233" y="102.8" fill="#000000" font-family="Verdana" font-size="12">num_product</text>
	</g>
	<text x="199" y="94" fill="#b35806" font-family="Verdana" font-size="12">0,N</text>
	<text x="327" y="94" fill="#b35806" font-family="Verdana" font-size="12">0,N</text>
</g>

<!-- Association ASSOCIE -->
<g>
	<line x1="400" y1="77" x2="515" y2="77" stroke="#8073ac" stroke-width="2"/>
	<line x1="515" y1="221" x2="515" y2="77" stroke="#8073ac" stroke-width="2"/>
	<polygon points="515 170 509 158 515 162 521 158" fill="#8073ac" stroke-width="0"/>
	<g>
		<path d="M531 52 a14 14 90 0 1 14 14 V77 h-60 V66 a14 14 90 0 1 14 -14" fill="#b2abd2" stroke="#b2abd2" stroke-width="0"/>
		<path d="M545 77 v11 a14 14 90 0 1 -14 14 H499 a14 14 90 0 1 -14 -14 V77 H60" fill="#d8daeb" stroke="#d8daeb" stroke-width="0"/>
		<rect x="485" y="52" width="60" height="50" fill="none" rx="14" stroke="#8073ac" stroke-width="2"/>
		<line x1="485" y1="77" x2="545" y2="77" stroke="#8073ac" stroke-width="1"/>
		<text x="493" y="69.75" fill="#000000" font-family="Verdana" font-size="12">associé</text>
	</g>
	<text x="451" y="94" fill="#b35806" font-family="Verdana" font-size="12">0,1</text>
	<text x="520" y="162" fill="#b35806" font-family="Verdana" font-size="12">0,N</text>
</g>

<!-- Association DEFINIPAR -->
<g>
	<line x1="274" y1="221" x2="400" y2="221" stroke="#8073ac" stroke-width="2"/>
	<polygon points="314 221 326 215 322 221 326 227" fill="#8073ac" stroke-width="0"/>
	<line x1="400" y1="77" x2="400" y2="221" stroke="#8073ac" stroke-width="2"/>
	<g>
		<path d="M420 196 a14 14 90 0 1 14 14 V221 h-68 V210 a14 14 90 0 1 14 -14" fill="#b2abd2" stroke="#b2abd2" stroke-width="0"/>
		<path d="M434 221 v11 a14 14 90 0 1 -14 14 H380 a14 14 90 0 1 -14 -14 V221 H68" fill="#d8daeb" stroke="#d8daeb" stroke-width="0"/>
		<rect x="366" y="196" width="68" height="50" fill="none" rx="14" stroke="#8073ac" stroke-width="2"/>
		<line x1="366" y1="221" x2="434" y2="221" stroke="#8073ac" stroke-width="1"/>
		<text x="373" y="213.75" fill="#000000" font-family="Verdana" font-size="12">définipar</text>
	</g>
	<text x="319" y="238" fill="#b35806" font-family="Verdana" font-size="12">0,N</text>
	<text x="405" y="162" fill="#b35806" font-family="Verdana" font-size="12">0,1</text>
</g>

<!-- Entity ORDER -->
<g>
	<g>
		<rect x="106" y="18" width="88" height="25" fill="#fdb863" stroke="none" stroke-width="0" opacity="1"/>
		<rect x="106" y="43" width="88" height="93" fill="#fee0b6" stroke="none" stroke-width="0" opacity="1"/>
		<rect x="106" y="18" width="88" height="118" fill="none" stroke="#e08214" stroke-width="2" opacity="1"/>
		<line x1="106" y1="43" x2="194" y2="43" stroke="#e08214" stroke-width="1"/>
	</g>
	<text x="128" y="35.75" fill="#000000" font-family="Verdana" font-size="12">ORDER</text>
	<text x="111" y="60.8" fill="#000000" font-family="Verdana" font-size="12">num_order</text>
	<line x1="111" y1="63" x2="179" y2="63" stroke="#000000" stroke-width="1"/>
	<text x="111" y="77.8" fill="#000000" font-family="Verdana" font-size="12">num_invoice</text>
	<text x="111" y="94.8" fill="#000000" font-family="Verdana" font-size="12">status</text>
	<text x="111" y="111.8" fill="#000000" font-family="Verdana" font-size="12">created_at</text>
	<text x="111" y="128.8" fill="#000000" font-family="Verdana" font-size="12">updated_at</text>
</g>

<!-- Entity PRODUCT -->
<g>
	<g>
		<rect x="354" y="9" width="92" height="25" fill="#fdb863" stroke="none" stroke-width="0" opacity="1"/>
		<rect x="354" y="34" width="92" height="111" fill="#fee0b6" stroke="none" stroke-width="0" opacity="1"/>
		<rect x="354" y="9" width="92" height="136" fill="none" stroke="#e08214" stroke-width="2" opacity="1"/>
		<line x1="354" y1="34" x2="446" y2="34" stroke="#e08214" stroke-width="1"/>
	</g>
	<text x="370" y="26.75" fill="#000000" font-family="Verdana" font-size="12">PRODUCT</text>
	<text x="359" y="51.8" fill="#000000" font-family="Verdana" font-size="12">num_product</text>
	<line x1="359" y1="54" x2="440" y2="54" stroke="#000000" stroke-width="1"/>
	<text x="359" y="68.8" fill="#000000" font-family="Verdana" font-size="12">name</text>
	<text x="359" y="85.8" fill="#000000" font-family="Verdana" font-size="12">quantity</text>
	<text x="359" y="102.8" fill="#000000" font-family="Verdana" font-size="12">status</text>
	<text x="359" y="119.8" fill="#000000" font-family="Verdana" font-size="12">created_at</text>
	<text x="359" y="136.8" fill="#000000" font-family="Verdana" font-size="12">updated_at</text>
</g>

<!-- Entity USER -->
<g>
	<g>
		<rect x="9" y="162" width="80" height="25" fill="#fdb863" stroke="none" stroke-width="0" opacity="1"/>
		<rect x="9" y="187" width="80" height="93" fill="#fee0b6" stroke="none" stroke-width="0" opacity="1"/>
		<rect x="9" y="162" width="80" height="118" fill="none" stroke="#e08214" stroke-width="2" opacity="1"/>
		<line x1="9" y1="187" x2="89" y2="187" stroke="#e08214" stroke-width="1"/>
	</g>
	<text x="32" y="179.75" fill="#000000" font-family="Verdana" font-size="12">USER</text>
	<text x="14" y="204.8" fill="#000000" font-family="Verdana" font-size="12">num_user</text>
	<line x1="14" y1="207" x2="76" y2="207" stroke="#000000" stroke-width="1"/>
	<text x="14" y="221.8" fill="#000000" font-family="Verdana" font-size="12">name</text>
	<text x="14" y="238.8" fill="#000000" font-family="Verdana" font-size="12">password</text>
	<text x="14" y="255.8" fill="#000000" font-family="Verdana" font-size="12">created_at</text>
	<text x="14" y="272.8" fill="#000000" font-family="Verdana" font-size="12">updated_at</text>
</g>

<!-- Entity TAG -->
<g>
	<g>
		<rect x="234" y="170" width="80" height="25" fill="#fdb863" stroke="none" stroke-width="0" opacity="1"/>
		<rect x="234" y="195" width="80" height="77" fill="#fee0b6" stroke="none" stroke-width="0" opacity="1"/>
		<rect x="234" y="170" width="80" height="102" fill="none" stroke="#e08214" stroke-width="2" opacity="1"/>
		<line x1="234" y1="195" x2="314" y2="195" stroke="#e08214" stroke-width="1"/>
	</g>
	<text x="261" y="187.75" fill="#000000" font-family="Verdana" font-size="12">TAG</text>
	<text x="239" y="212.8" fill="#000000" font-family="Verdana" font-size="12">num_tag</text>
	<line x1="239" y1="215" x2="294" y2="215" stroke="#000000" stroke-width="1"/>
	<text x="239" y="229.8" fill="#000000" font-family="Verdana" font-size="12">name</text>
	<text x="239" y="246.8" fill="#000000" font-family="Verdana" font-size="12">created_at</text>
	<text x="239" y="263.8" fill="#000000" font-family="Verdana" font-size="12">updated_at</text>
</g>

<!-- Entity CATEGORY -->
<g>
	<g>
		<rect x="466" y="170" width="98" height="25" fill="#fdb863" stroke="none" stroke-width="0" opacity="1"/>
		<rect x="466" y="195" width="98" height="77" fill="#fee0b6" stroke="none" stroke-width="0" opacity="1"/>
		<rect x="466" y="170" width="98" height="102" fill="none" stroke="#e08214" stroke-width="2" opacity="1"/>
		<line x1="466" y1="195" x2="564" y2="195" stroke="#e08214" stroke-width="1"/>
	</g>
	<text x="482" y="187.75" fill="#000000" font-family="Verdana" font-size="12">CATEGORY</text>
	<text x="471" y="212.8" fill="#000000" font-family="Verdana" font-size="12">num_category</text>
	<line x1="471" y1="215" x2="559" y2="215" stroke="#000000" stroke-width="1"/>
	<text x="471" y="229.8" fill="#000000" font-family="Verdana" font-size="12">name</text>
	<text x="471" y="246.8" fill="#000000" font-family="Verdana" font-size="12">created_at</text>
	<text x="471" y="263.8" fill="#000000" font-family="Verdana" font-size="12">updated_at</text>
</g>
</svg>